<mxfile host="app.diagrams.net" agent="Mozilla/5.0 (Windows NT 10.0; Win64; x64) AppleWebKit/537.36 (KHTML, like Gecko) Chrome/126.0.0.0 Safari/537.36" version="24.7.4">
  <diagram name="Page-1" id="SjE87K3pd2KKav4jE3TY">
    <mxGraphModel dx="794" dy="459" grid="1" gridSize="10" guides="1" tooltips="1" connect="1" arrows="1" fold="1" page="1" pageScale="1" pageWidth="850" pageHeight="1100" math="0" shadow="0">
      <root>
        <mxCell id="0" />
        <mxCell id="1" parent="0" />
        <mxCell id="RByM49qMkWtKu2swFP4P-2" value="Register Successfully" style="rounded=1;whiteSpace=wrap;html=1;" parent="1" vertex="1">
          <mxGeometry x="365" y="120" width="120" height="60" as="geometry" />
        </mxCell>
        <mxCell id="RByM49qMkWtKu2swFP4P-3" value="" style="endArrow=classic;html=1;rounded=0;entryX=0.5;entryY=0;entryDx=0;entryDy=0;exitX=0.5;exitY=1;exitDx=0;exitDy=0;" parent="1" target="RByM49qMkWtKu2swFP4P-2" edge="1">
          <mxGeometry width="50" height="50" relative="1" as="geometry">
            <mxPoint x="425" y="50" as="sourcePoint" />
            <mxPoint x="430" y="220" as="targetPoint" />
          </mxGeometry>
        </mxCell>
        <mxCell id="RByM49qMkWtKu2swFP4P-4" value="Enter Email ID" style="rounded=1;whiteSpace=wrap;html=1;" parent="1" vertex="1">
          <mxGeometry x="365" y="240" width="120" height="60" as="geometry" />
        </mxCell>
        <mxCell id="RByM49qMkWtKu2swFP4P-5" value="Enter Password" style="rounded=1;whiteSpace=wrap;html=1;" parent="1" vertex="1">
          <mxGeometry x="365" y="360" width="120" height="60" as="geometry" />
        </mxCell>
        <mxCell id="RByM49qMkWtKu2swFP4P-6" value="" style="endArrow=classic;html=1;rounded=0;exitX=0.5;exitY=1;exitDx=0;exitDy=0;entryX=0.5;entryY=0;entryDx=0;entryDy=0;" parent="1" source="RByM49qMkWtKu2swFP4P-2" target="RByM49qMkWtKu2swFP4P-4" edge="1">
          <mxGeometry width="50" height="50" relative="1" as="geometry">
            <mxPoint x="380" y="270" as="sourcePoint" />
            <mxPoint x="430" y="220" as="targetPoint" />
          </mxGeometry>
        </mxCell>
        <mxCell id="RByM49qMkWtKu2swFP4P-7" value="" style="endArrow=classic;html=1;rounded=0;entryX=0.5;entryY=0;entryDx=0;entryDy=0;exitX=0.5;exitY=1;exitDx=0;exitDy=0;" parent="1" source="RByM49qMkWtKu2swFP4P-4" target="RByM49qMkWtKu2swFP4P-5" edge="1">
          <mxGeometry width="50" height="50" relative="1" as="geometry">
            <mxPoint x="380" y="270" as="sourcePoint" />
            <mxPoint x="430" y="220" as="targetPoint" />
          </mxGeometry>
        </mxCell>
        <mxCell id="RByM49qMkWtKu2swFP4P-8" value="" style="rhombus;whiteSpace=wrap;html=1;" parent="1" vertex="1">
          <mxGeometry x="385" y="490" width="80" height="80" as="geometry" />
        </mxCell>
        <mxCell id="RByM49qMkWtKu2swFP4P-9" value="" style="endArrow=classic;html=1;rounded=0;entryX=0.5;entryY=0;entryDx=0;entryDy=0;exitX=0.5;exitY=1;exitDx=0;exitDy=0;" parent="1" source="RByM49qMkWtKu2swFP4P-5" target="RByM49qMkWtKu2swFP4P-8" edge="1">
          <mxGeometry width="50" height="50" relative="1" as="geometry">
            <mxPoint x="380" y="520" as="sourcePoint" />
            <mxPoint x="430" y="470" as="targetPoint" />
          </mxGeometry>
        </mxCell>
        <mxCell id="RByM49qMkWtKu2swFP4P-10" value="Login Successfull" style="rounded=1;whiteSpace=wrap;html=1;" parent="1" vertex="1">
          <mxGeometry x="365" y="630" width="120" height="60" as="geometry" />
        </mxCell>
        <mxCell id="RByM49qMkWtKu2swFP4P-11" value="(Valid)" style="endArrow=classic;html=1;rounded=0;entryX=0.5;entryY=0;entryDx=0;entryDy=0;exitX=0.5;exitY=1;exitDx=0;exitDy=0;" parent="1" source="RByM49qMkWtKu2swFP4P-8" target="RByM49qMkWtKu2swFP4P-10" edge="1">
          <mxGeometry width="50" height="50" relative="1" as="geometry">
            <mxPoint x="380" y="520" as="sourcePoint" />
            <mxPoint x="430" y="470" as="targetPoint" />
          </mxGeometry>
        </mxCell>
        <mxCell id="RByM49qMkWtKu2swFP4P-12" value="Invalid Credentials" style="rounded=1;whiteSpace=wrap;html=1;" parent="1" vertex="1">
          <mxGeometry x="550" y="500" width="120" height="60" as="geometry" />
        </mxCell>
        <mxCell id="RByM49qMkWtKu2swFP4P-13" value="(Invalid)" style="endArrow=classic;html=1;rounded=0;entryX=0;entryY=0.5;entryDx=0;entryDy=0;exitX=1;exitY=0.5;exitDx=0;exitDy=0;" parent="1" source="RByM49qMkWtKu2swFP4P-8" target="RByM49qMkWtKu2swFP4P-12" edge="1">
          <mxGeometry width="50" height="50" relative="1" as="geometry">
            <mxPoint x="380" y="520" as="sourcePoint" />
            <mxPoint x="430" y="470" as="targetPoint" />
          </mxGeometry>
        </mxCell>
        <mxCell id="RByM49qMkWtKu2swFP4P-14" value="" style="endArrow=classic;html=1;rounded=0;" parent="1" edge="1">
          <mxGeometry width="50" height="50" relative="1" as="geometry">
            <mxPoint x="610" y="80" as="sourcePoint" />
            <mxPoint x="430" y="80" as="targetPoint" />
          </mxGeometry>
        </mxCell>
        <mxCell id="RByM49qMkWtKu2swFP4P-15" value="" style="endArrow=none;html=1;rounded=0;exitX=0.5;exitY=0;exitDx=0;exitDy=0;" parent="1" source="RByM49qMkWtKu2swFP4P-12" edge="1">
          <mxGeometry width="50" height="50" relative="1" as="geometry">
            <mxPoint x="300" y="300" as="sourcePoint" />
            <mxPoint x="610" y="80" as="targetPoint" />
          </mxGeometry>
        </mxCell>
        <mxCell id="RByM49qMkWtKu2swFP4P-17" value="" style="endArrow=classic;html=1;rounded=0;exitX=0.5;exitY=1;exitDx=0;exitDy=0;entryX=0.5;entryY=0;entryDx=0;entryDy=0;" parent="1" source="RByM49qMkWtKu2swFP4P-10" edge="1">
          <mxGeometry width="50" height="50" relative="1" as="geometry">
            <mxPoint x="530" y="600" as="sourcePoint" />
            <mxPoint x="425" y="740" as="targetPoint" />
          </mxGeometry>
        </mxCell>
        <mxCell id="xlo0geAEN1d62y5UPzAg-1" value="" style="shape=image;html=1;verticalAlign=top;verticalLabelPosition=bottom;labelBackgroundColor=#ffffff;imageAspect=0;aspect=fixed;image=https://cdn4.iconfinder.com/data/icons/essential-app-2/16/record-round-circle-dot-128.png" vertex="1" parent="1">
          <mxGeometry x="405" y="10" width="40" height="40" as="geometry" />
        </mxCell>
        <mxCell id="xlo0geAEN1d62y5UPzAg-2" value="" style="shape=image;html=1;verticalAlign=top;verticalLabelPosition=bottom;labelBackgroundColor=#ffffff;imageAspect=0;aspect=fixed;image=https://cdn4.iconfinder.com/data/icons/ionicons/512/icon-ios7-circle-filled-128.png" vertex="1" parent="1">
          <mxGeometry x="405" y="740" width="40" height="40" as="geometry" />
        </mxCell>
      </root>
    </mxGraphModel>
  </diagram>
</mxfile>
